<?xml version="1.0" encoding="utf-8"?>
<!-- Generator: Adobe Illustrator 24.1.3, SVG Export Plug-In . SVG Version: 6.00 Build 0)  -->
<svg version="1.1" id="Capa_1" xmlns="http://www.w3.org/2000/svg" xmlns:xlink="http://www.w3.org/1999/xlink" x="0px" y="0px"
	 viewBox="0 0 1224.8 1549.7" style="enable-background:new 0 0 1224.8 1549.7;" xml:space="preserve">
<style type="text/css">
	.st0{fill:#FFB438;}
	.st1{fill:#B6E1E4;}
	.st2{fill:#2DACBB;}
	.st3{fill:#001A3F;}
	.st4{fill:#EB7159;}
	.st5{fill:#FAFDFD;}
</style>
<path class="st0" d="M1171.7,943.8c-28.1,7.3-56.1,14.7-84.2,22c-2.4,0.6-3.9,1.6-5.1,3.8c-7.5,14.6-15.2,29.2-22.8,43.8
	c-1,2-1.8,4-2.2,6.3c-4.7,21.8-9.5,43.6-14.3,65.4c-0.1,0.3-0.2,0.6-0.5,1.2c-2.2-3.9-2.3-8.1-3.2-12c-4.3-19.8-8.5-39.6-12.8-59.4
	c-0.8-3.6-2.7-6.8-4.2-10.1c-5.3-11.8-10.7-23.6-15.9-35.4c-1.3-3-3.2-4.6-6.5-5.4c-26.4-6.2-52.7-12.7-79-19.1
	c-1-0.3-2.3-0.1-2.9-1.7c11-2.7,22-5.3,32.9-7.9c13.2-3.2,26.3-6.4,39.5-9.4c2.1-0.5,3.4-1.4,4.5-3.1c9.7-15,19.5-30,29.3-45
	c2.3-3.5,2.5-7.5,3.4-11.4c4.7-19.9,9.2-39.8,13.8-59.6c0.1-0.4,0.4-0.8,1-1.8c0.6,1.6,1.1,2.8,1.4,4c4.9,20.6,9.7,41.3,14.5,61.9
	c0.5,2.2,1.4,4.2,2.8,6c11.5,15.1,23,30.3,34.4,45.4c1,1.3,2,2.1,3.8,2.5c22.7,5.7,45.4,11.6,68.1,17.5c1.4,0.4,2.8,0.8,4.2,0.6
	C1171.7,943.2,1171.7,943.5,1171.7,943.8z"/>
<path class="st1" d="M701.6,1508.8c-0.3,0.4-0.7,0.7-1,1.1c-23,0-46.1,0-69.1,0c-0.3-0.3-0.7-0.7-1-1c1.2-1.2,2.7-1,4-0.6
	c2.2,0.7,4.4,0.6,6.6,0.6c15.9,0,31.9,0,47.8,0c3,0,6,0.2,9-0.7C699.1,1507.8,700.5,1507.7,701.6,1508.8z"/>
<path class="st2" d="M701.6,1508.8c-1-1.1-2.4-1-3.6-0.7c-3,0.9-6,0.7-9,0.7c-15.9,0-31.9,0-47.8,0c-2.2,0-4.4,0.1-6.6-0.6
	c-1.3-0.4-2.8-0.6-4,0.6c-0.9,0-1.9,0-2.8,0c-4.4-1.7-9-0.6-13.5-0.8c-13.1-0.5-26.1-1.6-39.1-2.7c-11-0.9-21.9-2-32.8-3.3
	c-10.6-1.2-21.2-2.7-31.7-4.3c-17-2.6-34-5.4-50.9-8.9c-17.3-3.6-34.6-7.4-51.7-12.2c-3.9-1.1-3.9-1.1-3.9-5.2c0-1.1,0-2.2,0-3.4
	c0-56,0-111.9,0.1-167.9c0-3.8-1.2-6-4.4-8.1c-33.3-22.1-65.9-45.1-97.6-69.5c-17.4-13.3-34.4-27.1-50.9-41.4
	c-18.4-15.9-36.4-32.2-53.2-49.8c-22.6-23.5-43.6-48.4-61.1-76.1c-18.2-28.7-32-59.3-39.4-92.5c-2.9-13.2-4.7-26.6-5.5-40.2
	c-0.5-8.1-0.9-16.3-0.5-24.4c0.7-16.3,2.3-32.4,5.1-48.5c7.3-41.4,20.2-81,34.6-120.4c6.2-17,12.7-33.8,21.2-49.7
	c6.9-12.9,14.8-25.1,25.6-35c6.9-6.4,14.7-11.2,24.2-12.8c3.4-0.6,6.6-0.7,10,0c1.1,0.2,2.1,0.7,3.2,0c0.1-0.9-0.4-1.6-0.8-2.2
	c-4.6-6-5.9-12.9-6.3-20.2c-0.6-12,2.5-23.1,7.3-33.8c6-13.3,14.3-25.3,23.3-36.8c18.5-23.6,40.2-44.2,61.6-65.1
	c10.4-10.1,21.2-20,31.8-29.9c9.4-8.9,18.7-17.9,28.3-26.5c11.9-10.8,26.1-17.1,41.8-20.1c15.7-3,31.4-2.6,47.2-0.3
	c22.9,3.3,44.7,10.5,66,19.4c22.3,9.4,43.6,20.7,64,33.6c1.2,0.8,2.3,1.7,3.5,2.5c-0.1,1.7-0.4,3.5-0.3,5.2
	c0.4,11.3,0.8,22.7,1.3,34c1.1,23.8,2.3,47.6,3.5,71.4c1,20.6,2.1,41.2,3.2,61.8c1.5,26.3,3,52.7,4.5,79c0.7,12.6,1.4,25.2,2.2,37.8
	c1.3,21.9,2.7,43.7,4.1,65.6c0.2,2.5-0.9,2.6-2.8,2.3c-4.9-0.7-9.8-1.4-14.7-2.1c-16.2-2.2-32.4-3.5-48.7-4.2
	c-1.3-0.1-2.5-0.1-3.8,0.3c-2.1,0.8-3,2.3-2.8,4.5c0.2,2,1.3,3.3,3.2,3.6c1.6,0.2,3.2,0.3,4.8,0.3c19.7,0.8,39.2,2.8,58.7,5.7
	c24.8,3.7,49.5,8.2,73.9,14c1.2,0.3,2.5,0.5,3.8,0.5c1.9-0.1,3.3-1.2,3.7-3.1c0.4-2.1-0.2-3.9-2.2-4.8c-1.1-0.5-2.4-0.8-3.7-1.1
	c-18.8-4.4-37.8-8-56.8-11.3c-3.6-0.6-3.7-0.6-3.9-4.5c-1.5-24.1-3.1-48.2-4.5-72.3c-1.5-24.7-2.8-49.5-4.2-74.2
	c-2.1-37.8-4.3-75.6-6.2-113.5c-1.5-30.3-2.7-60.7-3.9-91c-0.1-3.4-1.2-5.5-4.6-6.3c-0.5-13.2-0.7-26.5,0.3-39.7
	c0.6-7.8,1.2-15.6,2.2-23.3c2.5-18.7,6.5-37.1,14.6-54.3c4.3-9,9.7-17.2,17.3-23.9c8.6-7.7,19-11.7,29.9-14.3
	c25.8-6,48.2,1.9,68.5,17.6c8.1,6.3,15.4,13.5,21.5,21.8c1.8,2.5,3.4,2.6,5.9,1.8c12.4-3.9,25.1-6.2,38.2-5.6
	c17.3,0.8,32.7,6.4,46.3,17.2c15.7,12.5,26,28.9,33.8,47c9.4,21.8,15,44.7,18.6,68.1c2.2,14.5,3.7,29.1,4.9,43.7
	c1.4,17.9,1.8,35.7,1.8,53.6c0,21.3-0.4,42.5,0.1,63.8c0.9,37.2,0.1,74.5,1,111.7c0.5,22.2,0,44.4,0.9,66.6
	c0.8,18.9,0.1,37.7,1,56.5c0.7,15.3,0.1,30.7,0.9,46c0.8,15.6,0.2,31.3,1,46.9c0.7,13.1,0.1,26.2,0.9,39.3c0.8,12.6,0.2,25.3,1,37.8
	c1,15.7,0.8,31.3,0.8,47c0.1,131.6,0,263.1,0,394.7c0,6.6,1.1,5.6-5.7,7.8c-24.7,8.2-49.9,14.4-75.6,19.1c-16,2.9-32.1,5.3-48.2,7.2
	c-12.5,1.4-25,2.7-37.7,3.3c-4.8,0.2-9.5,0.8-14.3,0.8c-4.5,0.2-9.1-0.9-13.5,0.8C702.8,1508.8,702.2,1508.8,701.6,1508.8z
	 M517.3,695.1c20.1-28.7,26-59.4,13.8-92.9c-4.3-11.8-10.1-22.7-19.2-31.6c-12.1-11.8-26.1-14.5-41.8-8
	c-10.2,4.3-19.5,10.2-28.4,16.8c-1,0.7-2.3,1.1-2.6,2.6c2.2,0.7,4.5-0.3,6.5,0.9c-1.9,0.6-3.8,0.5-5.7,0.3
	c-5.8-0.6-11.1,1.1-16.3,3.2c-7.3,2.9-14,7.1-20,12.1c-7.7,6.5-15.4,12.9-23.6,18.8c-21.9,15.6-45.5,27.8-72,33.6
	c-19.6,4.3-39.2,4.7-58.8-0.5c-3.2-0.9-6.2-2.4-10.2-2.9c5.2,5.9,9.3,11.8,12.8,18c14.3,26,20.9,54.1,22.5,83.4
	c0.7,13.7,0.2,27.5-0.4,41.2c-0.7,16.6-1.5,33.1-3.1,49.7c-0.9,9.4-2.2,18.7-3.7,28c-0.9,5.8-2.5,11.4-3.9,17.1
	c0.7,0.1,1,0.2,1.3,0.1c11.5-3.9,23.4-4.9,35.4-5.3c16.9-0.4,33.9-0.6,50.8,0.8c5.4,0.4,10.8,0.6,16.2,1.2
	c14.1,1.6,28.2,3.2,42.2,5.4c2.6,0.4,5.5,2.1,7.9,0.7c2.3-1.4,2.8-4.5,4-6.9c7.1-14,16.4-26.3,28.5-36.4
	c12.2-10.2,26.1-17.9,40.9-23.6c3.9-1.5,6.9-3.9,9.3-7.2c4.6-6.4,8.2-13.4,10.9-20.7c6.3-16.9,8.4-34.7,9.2-52.6
	c0.6-11.2-0.4-22.3-1.5-33.5C518.1,703,517,699.1,517.3,695.1z M732.6,603.4c1.1,30.3,2.2,60.7,3.4,91c1.7,43.1,3.9,86.2,6.1,129.3
	c0.1,1.4,0.1,2.9,0.7,4.2c0.8,1.8,2.3,2.7,4.2,2.5s3.3-1.3,3.7-3.2c0.2-1.1,0.1-2.2,0.1-3.3c-0.4-6.9-0.8-13.7-1.1-20.6
	c-1.9-42.5-4.1-84.9-5.7-127.4c-2.2-57-3.9-114-4.5-171.1c-0.4-38.4-0.4-76.7,1.6-115c0.8-15.2,1.8-30.3,4.8-45.2
	c0.2-0.8,0.4-1.6,0.4-2.4c-0.1-2.1-1.2-3.6-3.3-4.2c-2.2-0.6-3.8,0.4-4.8,2.2c-0.6,1.1-0.8,2.4-1,3.7c-1.9,9.4-2.9,19-3.7,28.5
	c-2,25.8-2.6,51.7-2.9,77.6c-0.3,29.2,0,58.5,0.6,87.7C731.7,559.6,732.1,581.5,732.6,603.4z M424.4,888.1c-2.4,0.1-3.8,1.1-4.1,3.2
	c-0.3,2.1,0.2,3.8,2.3,4.8c0.9,0.4,1.8,0.6,2.7,0.9c4.4,1.4,8.8,2.8,13.2,4.4c33.2,11.8,63.9,28.4,93,48
	c36.7,24.8,69.5,53.8,96.9,88.6c25.8,32.8,45.2,68.8,54,110c0.2,0.8,0.4,1.6,0.7,2.3c0.9,1.8,2.4,2.7,4.3,2.4
	c2.1-0.3,3.6-1.6,3.6-3.8c0-1.4-0.2-2.9-0.5-4.3c-3.8-17.6-9.6-34.4-17.2-50.7c-15.1-32.3-35.7-60.8-60.1-86.7
	c-34.7-36.6-74.6-66.5-119-90.4c-21-11.3-42.7-21-65.6-27.8C427.2,888.6,425.9,888,424.4,888.1z M164.7,771.6
	c11.4,0,21.7-3.3,31-9.8c10.2-7,17.8-16.4,24.1-26.9c9.6-15.9,15.8-33.1,20.1-51c0.5-2.2,1-4.4,1.2-6.6c0.2-2.4-1.2-4.1-3.3-4.6
	s-3.9,0.6-4.9,2.9c-0.3,0.7-0.5,1.5-0.6,2.3c-2.3,10.8-5.5,21.3-9.6,31.5c-5.5,13.7-12.4,26.7-22.7,37.4
	c-14.8,15.3-32.3,19.6-52.5,13.1c-1.8-0.6-3.6-1.4-5.5-1.8c-2.1-0.5-3.8,0.5-4.6,2.5s-0.4,3.8,1.4,5.1c0.8,0.5,1.7,0.9,2.6,1.2
	C148.9,769.9,156.7,771.5,164.7,771.6z M316.8,527.9c0-6.9-1.9-13.8-6.8-20.2c-2.7-3.6-6.2-6.5-10.3-8.4c-2.2-1-4.3-0.3-5.4,1.6
	c-1.2,1.8-0.8,4,1,5.6c0.6,0.5,1.3,0.9,2,1.3c5.5,3.4,8.7,8.3,10,14.5c1.7,7.8,0.9,15.6-0.7,23.3c-3,13.7-8.4,26.4-14.5,38.9
	c-4.6,9.5-9.9,18.6-15.4,27.6c-1.8,2.9-1.3,5.2,1,6.6c2.2,1.3,4.2,0.7,6.1-1.8c0.3-0.4,0.5-0.8,0.8-1.2c11-17.5,20.5-35.7,26.9-55.4
	C314.6,550.9,316.9,541.5,316.8,527.9z M716.5,1132.2c0,2.2,0.8,3.8,3,4.4c2,0.5,3.9,0.1,4.9-1.9c1.1-2.1,1.9-4.4,2.9-6.6
	c9.8-20.1,21.8-38,44.1-46.2c2.9-1.1,3.8-3.8,2.5-6.2c-1.1-1.9-3.1-2.6-5.8-1.8c-6.3,2-12.1,5-17.3,9c-16,12.2-26.3,28.5-33.7,46.9
	C716.9,1130.7,716.7,1131.5,716.5,1132.2z M146.7,964.9c3,0,4.6-1.3,5-3.4c0.4-2.2-0.7-4.1-2.8-5c-0.4-0.2-0.9-0.2-1.4-0.3
	c-14.3-3.4-28.5-6.8-42.8-10.2c-0.9-0.2-1.9-0.3-2.8-0.2c-2,0.1-3.3,1.3-3.7,3.2c-0.5,2.1,0.2,3.8,2.1,4.8c1.1,0.6,2.4,0.9,3.6,1.2
	c10.7,2.5,21.4,5,32.1,7.5C139.7,963.4,143.4,964.2,146.7,964.9z M136.5,919c0.7,0,1.4,0,2,0c3.1-0.1,4.2-0.8,4.6-3.1
	c0.5-2.7-0.7-4.5-3.6-5.3c-0.8-0.2-1.6-0.2-2.4-0.3c-8.2-1.2-16.4-2.3-24.6-3.5c-3.7-0.5-6.2,0.8-6.6,3.7c-0.4,2.5,1.3,4.5,5.2,5
	C119.5,916.8,128,917.8,136.5,919z"/>
<path class="st0" d="M169.1,389.2c-3.3-5.4-6.5-10.5-9.6-15.6c-13.2-21.7-26.4-43.4-39.7-65c-1.4-2.3-1.6-4.2-0.6-6.6
	c12-30.4,24-60.8,36-91.3c0.2-0.6,0.5-1.2,0.8-1.8c0.8-2.2,2-2.2,3.5-0.8c0.9,0.9,1.9,1.7,2.8,2.6c17.8,17.7,35.6,35.3,53.5,53
	c6.1,6.1,12.4,12,18.6,18c5.5,5.3,4.6,4.6,1.1,9.8c-20.6,30.6-41.2,61.2-61.9,91.8C172.3,385.2,171.3,387.3,169.1,389.2z"/>
<path class="st3" d="M586.7,449.9c3.3,0.8,4.4,2.9,4.6,6.3c1.2,30.3,2.4,60.7,3.9,91c1.9,37.8,4.1,75.6,6.2,113.5
	c1.4,24.7,2.7,49.5,4.2,74.2c1.4,24.1,3,48.2,4.5,72.3c0.2,3.9,0.3,3.9,3.9,4.5c19,3.3,38,6.9,56.8,11.3c1.2,0.3,2.5,0.6,3.7,1.1
	c2,0.9,2.7,2.7,2.2,4.8c-0.4,2-1.8,3.1-3.7,3.1c-1.3,0.1-2.5-0.2-3.8-0.5c-24.4-5.8-49.1-10.3-73.9-14c-19.5-2.9-39-4.9-58.7-5.7
	c-1.6-0.1-3.2-0.1-4.8-0.3c-2-0.3-3.1-1.6-3.2-3.6c-0.2-2.2,0.7-3.7,2.8-4.5c1.2-0.5,2.5-0.4,3.8-0.3c16.3,0.7,32.5,2,48.7,4.2
	c4.9,0.7,9.8,1.3,14.7,2.1c1.9,0.3,3,0.2,2.8-2.3c-1.4-21.8-2.8-43.7-4.1-65.6c-0.8-12.6-1.5-25.2-2.2-37.8c-1.5-26.3-3-52.7-4.5-79
	c-1.1-20.6-2.2-41.2-3.2-61.8c-1.2-23.8-2.4-47.6-3.5-71.4c-0.5-11.3-0.9-22.7-1.3-34c-0.1-1.7,0.2-3.5,0.3-5.2
	C584.2,451.5,585.4,450.7,586.7,449.9z"/>
<path class="st0" d="M766.4,115c-1.8-1.1-2.1-2.6-2.8-3.9C754,92.5,744.5,73.9,735,55.2c-2.2-4.4-2.8-3.8,1.1-7.7
	c7.2-7.2,14.5-14.5,21.7-21.7c2.4-2.4,2.5-2.4,4.9,0c11.9,11.8,23.8,23.7,35.6,35.6c2.8,2.8,2.8,2.9,0.7,6c-10,15-20,29.8-30,44.6
	C768.2,113,767.3,113.9,766.4,115z"/>
<path class="st0" d="M833.1,132.9c0.8,10.2-7.5,21-20.8,21c-13.1-0.1-20.8-11.4-20.6-21c0.2-11.3,9.5-20.8,20.8-20.7
	C824.6,112.2,834,122.7,833.1,132.9z M824.5,133.1c0.6-6.6-5.4-12.1-12-12.3c-6.4-0.2-12.1,5.8-12.1,12.4c0,5.5,4.6,11.9,12.5,12
	C819.3,145.4,824.4,139.8,824.5,133.1z"/>
<path class="st4" d="M39.7,616.3c9.6,1.5,19.2,3,28.9,4.6c17.2,2.8,34.4,5.5,51.5,8.3c1.3,0.2,2.5,0.4,3.8,0.7
	c3.3,0.8,4.8,2.6,4.3,5.2c-0.5,2.5-2.8,3.7-6,3.2c-3.9-0.6-7.9-1.3-11.8-1.9c-23.2-3.7-46.3-7.5-69.5-11.2c-0.9-0.2-1.9-0.3-2.8-0.6
	c-2.8-0.8-3.9-2.5-3.6-4.8C34.7,617.3,36.6,616.1,39.7,616.3z"/>
<path class="st4" d="M164.1,590.3c-0.1,2.8-3.2,4.9-5.8,3.8c-1.1-0.5-2.1-1.4-3.1-2.2c-15.5-12.8-30.9-25.7-46.3-38.6
	c-0.6-0.5-1.3-1-1.8-1.6c-1.6-1.9-1.6-4-0.2-5.7c1.4-1.6,3.6-1.9,5.6-0.8c0.7,0.4,1.3,0.9,1.9,1.4c15.6,13,31.1,25.9,46.7,38.9
	C162.6,586.9,164.1,588.1,164.1,590.3z"/>
<path class="st1" d="M614.2,1508c4.5,0.2,9.1-0.9,13.5,0.8C623.2,1508.7,618.6,1509.7,614.2,1508z"/>
<path class="st1" d="M703.4,1508.8c4.4-1.7,9-0.6,13.5-0.8C712.5,1509.7,707.9,1508.7,703.4,1508.8z"/>
<path class="st3" d="M517.3,695.1c-1.3-6.2-2.5-12.5-3.9-18.7c-3.8-17.4-9.3-34.2-17.4-50c-4.9-9.6-10.7-18.6-18.1-26.3
	s-15.9-13.8-26.6-16.3c-1.9-0.4-3.8-0.6-5.7-0.9c-2-1.3-4.4-0.2-6.5-0.9c0.3-1.5,1.6-1.9,2.6-2.6c8.9-6.5,18.1-12.5,28.4-16.8
	c15.7-6.5,29.7-3.8,41.8,8c9.1,8.9,14.9,19.8,19.2,31.6C543.4,635.6,537.5,666.4,517.3,695.1z"/>
<path class="st3" d="M732.6,603.4c-0.5-21.9-0.9-43.8-1.4-65.7c-0.7-29.2-1-58.5-0.6-87.7c0.3-25.9,0.8-51.8,2.9-77.6
	c0.7-9.6,1.7-19.1,3.7-28.5c0.3-1.2,0.4-2.6,1-3.7c1-1.8,2.6-2.8,4.8-2.2c2.1,0.6,3.2,2.1,3.3,4.2c0,0.8-0.2,1.6-0.4,2.4
	c-3,14.9-4,30.1-4.8,45.2c-1.9,38.3-2,76.7-1.6,115c0.6,57,2.3,114.1,4.5,171.1c1.6,42.5,3.8,84.9,5.7,127.4
	c0.3,6.9,0.7,13.7,1.1,20.6c0.1,1.1,0.2,2.3-0.1,3.3c-0.4,1.9-1.8,3-3.7,3.2s-3.4-0.8-4.2-2.5c-0.6-1.3-0.6-2.8-0.7-4.2
	c-2.2-43.1-4.3-86.2-6.1-129.3C734.8,664.1,733.6,633.7,732.6,603.4z"/>
<path class="st3" d="M424.4,888.1c1.5-0.1,2.8,0.5,4.2,0.9c22.9,6.8,44.6,16.5,65.6,27.8c44.4,23.9,84.3,53.7,119,90.4
	c24.4,25.8,45.1,54.3,60.1,86.7c7.6,16.3,13.4,33.1,17.2,50.7c0.3,1.4,0.5,2.8,0.5,4.3c-0.1,2.3-1.5,3.5-3.6,3.8
	c-1.9,0.3-3.4-0.6-4.3-2.4c-0.3-0.7-0.5-1.5-0.7-2.3c-8.8-41.2-28.1-77.2-54-110c-27.4-34.8-60.3-63.8-96.9-88.6
	c-29.1-19.7-59.8-36.2-93-48c-4.4-1.5-8.8-2.9-13.2-4.4c-0.9-0.3-1.9-0.5-2.7-0.9c-2.1-0.9-2.6-2.7-2.3-4.8S422,888.1,424.4,888.1z"
	/>
<path class="st3" d="M164.7,771.6c-8.1-0.1-15.8-1.8-23.4-4.6c-0.9-0.3-1.8-0.7-2.6-1.2c-1.8-1.3-2.2-3.1-1.4-5.1s2.5-3,4.6-2.5
	c1.9,0.4,3.6,1.2,5.5,1.8c20.2,6.5,37.8,2.2,52.5-13.1c10.4-10.8,17.2-23.7,22.7-37.4c4.1-10.2,7.4-20.7,9.6-31.5
	c0.2-0.8,0.3-1.6,0.6-2.3c0.9-2.3,2.8-3.3,4.9-2.9c2.1,0.5,3.5,2.2,3.3,4.6c-0.2,2.2-0.7,4.4-1.2,6.6c-4.3,17.9-10.5,35.2-20.1,51
	c-6.3,10.5-13.9,19.9-24.1,26.9C186.4,768.3,176.1,771.6,164.7,771.6z"/>
<path class="st3" d="M316.8,527.9c0,13.6-2.3,23-5.3,32.3c-6.5,19.7-15.9,37.9-26.9,55.4c-0.3,0.4-0.5,0.8-0.8,1.2
	c-1.9,2.5-4,3.1-6.1,1.8c-2.3-1.4-2.8-3.8-1-6.6c5.6-8.9,10.8-18.1,15.4-27.6c6.1-12.5,11.5-25.3,14.5-38.9
	c1.7-7.7,2.4-15.4,0.7-23.3c-1.3-6.2-4.6-11.2-10-14.5c-0.7-0.4-1.4-0.8-2-1.3c-1.8-1.5-2.1-3.8-1-5.6c1.2-1.9,3.2-2.6,5.4-1.6
	c4.1,1.9,7.5,4.8,10.3,8.4C314.9,514.1,316.9,521,316.8,527.9z"/>
<path class="st3" d="M716.5,1132.2c0.2-0.7,0.3-1.5,0.6-2.3c7.5-18.3,17.8-34.7,33.7-46.9c5.2-4,11-7.1,17.3-9
	c2.7-0.8,4.7-0.2,5.8,1.8c1.3,2.4,0.4,5.1-2.5,6.2c-22.3,8.1-34.3,26.1-44.1,46.2c-1,2.2-1.8,4.4-2.9,6.6c-1,2-2.9,2.4-4.9,1.9
	C717.3,1136.1,716.6,1134.4,716.5,1132.2z"/>
<path class="st5" d="M146.7,964.9c-3.3-0.7-7-1.5-10.7-2.4c-10.7-2.5-21.4-5-32.1-7.5c-1.2-0.3-2.5-0.6-3.6-1.2
	c-1.9-1-2.6-2.8-2.1-4.8c0.5-1.9,1.8-3,3.7-3.2c0.9-0.1,1.9,0,2.8,0.2c14.3,3.4,28.5,6.8,42.8,10.2c0.5,0.1,1,0.1,1.4,0.3
	c2.2,0.9,3.2,2.8,2.8,5S149.7,964.9,146.7,964.9z"/>
<path class="st5" d="M136.5,919c-8.5-1.1-17-2.2-25.5-3.4c-3.9-0.6-5.5-2.5-5.2-5c0.4-2.9,2.9-4.3,6.6-3.7
	c8.2,1.2,16.4,2.3,24.6,3.5c0.8,0.1,1.6,0.1,2.4,0.3c2.9,0.8,4.1,2.6,3.6,5.3c-0.4,2.3-1.5,3-4.6,3.1C137.9,919,137.2,919,136.5,919
	z"/>
</svg>
