<svg width="420" height="379" viewBox="0 0 420 379" fill="none" xmlns="http://www.w3.org/2000/svg">
<path d="M247.99 378.1C333.253 378.1 402.372 367.427 402.372 354.261C402.372 341.095 333.253 330.422 247.99 330.422C162.727 330.422 93.6082 341.095 93.6082 354.261C93.6082 367.427 162.727 378.1 247.99 378.1Z" fill="#EB7159"/>
<path d="M155.088 308.055L155.907 306.31C156.398 305.219 157.707 304.728 158.798 305.219L200.476 324.53C201.567 325.021 202.058 326.33 201.567 327.421L200.748 329.167C200.257 330.258 198.948 330.749 197.857 330.258L156.125 310.946C155.034 310.456 154.597 309.146 155.088 308.055Z" fill="black"/>
<path d="M156.78 291.962L177.509 297.418L205.494 310.401L200.694 320.711C199.767 322.675 197.475 323.548 195.511 322.621L158.634 305.546L156.78 291.962Z" fill="white"/>
<path d="M197.148 324.094C196.439 324.094 195.73 323.93 195.021 323.657L157.598 306.31L155.416 290.49L177.891 296.436L206.858 309.91L201.621 321.202C200.858 322.948 199.112 324.094 197.148 324.094ZM159.671 304.782L196.002 321.584C197.421 322.239 199.112 321.639 199.767 320.22C199.767 320.22 199.767 320.22 199.767 320.166L204.076 310.837L177.127 298.345L158.089 293.326L159.671 304.782Z" fill="black"/>
<path d="M161.58 313.456L138.014 302.545C136.213 301.727 135.395 299.545 136.268 297.745C139.705 290.326 148.488 287.107 155.907 290.544C163.326 293.981 166.544 302.764 163.108 310.183L161.58 313.456Z" fill="black"/>
<path d="M347.111 83.4101L335.001 84.1192C323.49 84.8284 313.616 76.0455 312.907 64.5351L312.252 53.2974C311.652 43.0961 319.399 34.2587 329.654 33.6586L339.092 33.0586C353.275 32.1857 365.495 43.0416 366.368 57.2251L366.641 61.3711C367.295 72.8815 358.567 82.7554 347.111 83.4101Z" fill="black"/>
<path d="M140.632 355.734C140.086 355.734 139.65 355.352 139.541 354.806L110.301 186.786L65.6775 354.752C65.5138 355.352 64.9138 355.679 64.3137 355.461C63.7682 355.297 63.4409 354.752 63.55 354.206L110.737 176.639L141.723 354.479C141.832 355.079 141.45 355.625 140.85 355.734C140.741 355.734 140.687 355.734 140.632 355.734Z" fill="black"/>
<path d="M89.626 166.493H310.562C313.235 166.493 315.362 168.62 315.362 171.293V176.912C315.362 179.585 313.235 181.713 310.562 181.713H89.626C86.953 181.713 84.8254 179.585 84.8254 176.912V171.293C84.8254 168.675 87.0075 166.493 89.626 166.493Z" fill="black"/>
<path d="M129.122 39.6593H267.957C273.739 39.6593 278.431 44.3508 278.431 50.1333V135.944C278.431 141.726 273.739 146.418 267.957 146.418H129.122C123.339 146.418 118.648 141.726 118.648 135.944V50.1333C118.593 44.3508 123.285 39.6593 129.122 39.6593Z" fill="black"/>
<path d="M137.195 48.8787H259.883C264.301 48.8787 267.847 52.4791 267.847 56.8433V131.361C267.847 135.78 264.247 139.326 259.883 139.326H137.195C132.776 139.326 129.231 135.725 129.231 131.361V56.8433C129.176 52.4245 132.776 48.8787 137.195 48.8787Z" fill="white"/>
<path d="M173.363 63.9895H208.168C211.277 63.9895 213.787 66.4989 213.787 69.6084V121.487C213.787 124.597 211.277 127.106 208.168 127.106H173.363C170.254 127.106 167.745 124.597 167.745 121.487V69.6084C167.799 66.4989 170.309 63.9895 173.363 63.9895Z" fill="#2CADBB"/>
<path d="M143.032 62.2439H155.307C156.616 62.2439 157.652 63.2804 157.652 64.5896V76.9184C157.652 78.2276 156.616 79.2641 155.307 79.2641H143.032C141.723 79.2641 140.687 78.2276 140.687 76.9184V64.6442C140.687 63.3349 141.723 62.2439 143.032 62.2439Z" fill="#2CADBB"/>
<path d="M143.469 87.2286H154.87C156.398 87.2286 157.652 88.4833 157.652 90.0108V101.412C157.652 102.94 156.398 104.194 154.87 104.194H143.469C141.941 104.194 140.687 102.94 140.687 101.412V90.0108C140.687 88.4833 141.941 87.2286 143.469 87.2286Z" fill="#EB7159"/>
<path d="M143.523 112.159H154.816C156.398 112.159 157.652 113.414 157.652 114.996V126.342C157.652 127.924 156.398 129.179 154.816 129.179H143.469C141.887 129.179 140.632 127.924 140.632 126.342V114.996C140.687 113.414 141.941 112.159 143.523 112.159Z" fill="#FFB433"/>
<path d="M259.228 66.2807H222.787C222.187 66.2807 221.696 65.7897 221.696 65.1897C221.696 64.5896 222.187 64.0986 222.787 64.0986H259.228C259.828 64.0986 260.319 64.5896 260.319 65.1897C260.319 65.7897 259.828 66.2807 259.228 66.2807Z" fill="black"/>
<path d="M259.228 76.4273H222.787C222.187 76.4273 221.696 75.9364 221.696 75.3363C221.696 74.7362 222.187 74.2452 222.787 74.2452H259.228C259.828 74.2452 260.319 74.7362 260.319 75.3363C260.319 75.9364 259.828 76.4273 259.228 76.4273Z" fill="black"/>
<path d="M247.936 86.4649H222.842C222.242 86.4649 221.751 85.9739 221.751 85.3739C221.751 84.7738 222.242 84.2828 222.842 84.2828H247.936C248.536 84.2828 249.027 84.7738 249.027 85.3739C249.027 85.9739 248.536 86.4649 247.936 86.4649Z" fill="black"/>
<path d="M226.606 94.0476H241.772C244.445 94.0476 246.627 96.2297 246.627 98.9027C246.627 101.576 244.445 103.758 241.772 103.758H226.606C223.933 103.758 221.751 101.576 221.751 98.9027C221.751 96.2297 223.933 94.0476 226.606 94.0476Z" fill="#EB7159"/>
<path d="M256.719 103.431C259.219 103.431 261.247 101.403 261.247 98.9028C261.247 96.4022 259.219 94.375 256.719 94.375C254.218 94.375 252.191 96.4022 252.191 98.9028C252.191 101.403 254.218 103.431 256.719 103.431Z" fill="#FB6D6D"/>
<path d="M199.985 166.493H161.962L177.509 146.418H217.059L199.985 166.493Z" fill="black"/>
<path d="M364.35 236.865C364.241 236.865 364.186 236.865 364.077 236.81C363.477 236.647 363.15 236.047 363.259 235.501L377.606 178.767C377.77 178.167 378.37 177.84 378.916 178.003C379.461 178.167 379.843 178.767 379.679 179.312L365.332 236.047C365.278 236.537 364.841 236.865 364.35 236.865Z" fill="black"/>
<path d="M285.468 353.333C285.413 353.333 285.359 353.333 285.304 353.333C284.704 353.279 284.268 352.733 284.377 352.133L299.051 243.684C299.106 243.084 299.706 242.647 300.306 242.757C300.906 242.866 301.342 243.411 301.233 244.011L286.504 352.461C286.504 352.897 286.013 353.333 285.468 353.333Z" fill="black"/>
<path d="M369.314 169.057L380.388 120.287C381.315 116.196 385.407 113.577 389.498 114.559L397.845 116.469C401.936 117.396 404.555 121.487 403.573 125.579L392.499 174.348C391.571 178.44 387.48 181.058 383.388 180.076L375.042 178.167C370.951 177.24 368.332 173.148 369.314 169.057Z" fill="#227FA8"/>
<path d="M365.114 353.333C364.568 353.333 364.077 352.952 364.023 352.406L348.694 243.957C348.584 243.357 349.021 242.811 349.621 242.702C350.221 242.593 350.767 243.029 350.876 243.629L366.205 352.079C366.314 352.679 365.877 353.224 365.277 353.333C365.223 353.333 365.168 353.333 365.114 353.333Z" fill="black"/>
<path d="M360.04 317.384H290.322C289.722 317.384 289.231 316.893 289.231 316.293C289.231 315.693 289.722 315.202 290.322 315.202H359.985C360.585 315.202 361.076 315.693 361.076 316.293C361.076 316.893 360.64 317.384 360.04 317.384Z" fill="black"/>
<path d="M292.996 218.153H359.058C363.204 218.153 366.587 221.536 366.587 225.682V236.21C366.587 240.356 363.204 243.738 359.058 243.738H292.996C288.85 243.738 285.468 240.356 285.468 236.21V225.682C285.468 221.536 288.85 218.153 292.996 218.153Z" fill="#227FA8"/>
<path d="M368.605 52.5335C377.553 52.5335 384.807 45.2797 384.807 36.3316C384.807 27.3835 377.553 20.1296 368.605 20.1296C359.657 20.1296 352.403 27.3835 352.403 36.3316C352.403 45.2797 359.657 52.5335 368.605 52.5335Z" fill="black"/>
<path d="M398.281 43.4234C410.272 43.4234 419.993 33.7027 419.993 21.7117C419.993 9.72066 410.272 0 398.281 0C386.29 0 376.569 9.72066 376.569 21.7117C376.569 33.7027 386.29 43.4234 398.281 43.4234Z" fill="black"/>
<path d="M358.022 66.9353C358.022 63.0076 354.858 59.8436 350.93 59.8436C350.603 59.8436 350.275 59.8981 349.948 59.8981L348.584 41.2959L322.126 44.1872C316.508 44.7872 312.198 49.5333 312.198 55.2067V58.207C312.198 61.6984 311.271 65.0806 309.416 68.0264L309.361 68.0809C308.598 69.2811 308.925 70.8631 310.07 71.6268C310.18 71.6814 310.234 71.7359 310.343 71.7905L312.198 72.7179V79.7551C312.198 85.1012 316.508 89.4108 321.854 89.4108C322.345 89.4108 322.836 89.3562 323.327 89.3017L330.146 88.2652L331.509 99.9393L353.167 97.3754L351.694 84.9375H351.748L350.93 74.0817C354.912 74.0271 358.022 70.8631 358.022 66.9353Z" fill="white"/>
<path d="M330.582 101.085L329.218 89.5198L323.545 90.3927C317.708 91.32 312.198 87.2832 311.271 81.4461C311.162 80.9006 311.162 80.3551 311.162 79.8096V73.4815L309.907 72.8815C308.98 72.4451 308.27 71.5722 307.998 70.5903C307.725 69.5538 307.889 68.4628 308.434 67.5899L308.489 67.4808C310.234 64.6987 311.162 61.4801 311.107 58.207V55.2066C311.107 48.9877 315.799 43.7507 321.963 43.0961L349.566 40.1503L350.93 58.8071C355.458 58.9162 359.058 62.6257 358.949 67.1535C358.895 71.0813 356.004 74.4089 352.13 75.0636L352.894 85.8103L354.367 98.3027L330.582 101.085ZM331.128 86.9559L332.492 98.63L351.967 96.3388L350.494 83.9555H350.603L349.785 72.9906H350.93C354.258 72.9906 356.931 70.263 356.931 66.9899C356.931 63.6622 354.203 60.9891 350.93 60.9891C350.657 60.9891 350.385 60.9891 350.112 61.0437L348.966 61.2073L347.603 42.5506L322.236 45.2782C317.162 45.8237 313.289 50.0787 313.344 55.2066V58.207C313.344 61.9165 312.362 65.517 310.398 68.6264L310.343 68.7355C310.125 69.1174 310.016 69.5538 310.125 69.9902C310.234 70.3721 310.507 70.6994 310.889 70.9176L313.344 72.1177V79.8096C313.344 84.5556 317.162 88.3742 321.909 88.3742C322.345 88.3742 322.781 88.3197 323.218 88.2651L331.128 86.9559Z" fill="black"/>
<path d="M319.235 80.8461C318.963 80.8461 318.69 80.8461 318.417 80.7915C317.381 80.6279 316.399 80.1369 315.58 79.3732C315.144 78.9913 315.089 78.2821 315.526 77.7912C315.908 77.3547 316.617 77.3002 317.053 77.7366C317.544 78.173 318.09 78.4458 318.744 78.6094C320.763 78.9367 322.345 76.9729 322.345 76.9729C322.727 76.5365 323.436 76.4819 323.872 76.8638C324.309 77.2456 324.363 77.8457 324.036 78.3367C323.981 78.4458 322.018 80.8461 319.235 80.8461Z" fill="black"/>
<path d="M323.709 66.1171C324.673 66.1171 325.454 65.3355 325.454 64.3714C325.454 63.4073 324.673 62.6257 323.709 62.6257C322.744 62.6257 321.963 63.4073 321.963 64.3714C321.963 65.3355 322.744 66.1171 323.709 66.1171Z" fill="black"/>
<path d="M350.221 70.6448C348.584 70.6448 347.275 69.3355 347.275 67.699C347.275 66.0624 348.584 64.7532 350.221 64.7532C351.857 64.7532 353.167 66.0624 353.167 67.699C353.167 69.3355 351.857 70.6448 350.221 70.6448ZM350.221 66.9353C349.784 66.9353 349.457 67.2626 349.457 67.699C349.457 68.1354 349.784 68.4627 350.221 68.4627C350.657 68.4627 350.984 68.1354 350.984 67.699C350.984 67.2626 350.657 66.9353 350.221 66.9353Z" fill="black"/>
<path d="M332.655 96.9389L365.877 95.4115C370.841 95.1387 375.696 96.8298 379.461 100.103C384.261 104.467 387.971 112.486 382.788 127.052L375.478 140.69L334.019 135.671L326.872 149.582L300.851 152.582C300.196 152.637 298.233 149.254 297.96 148.818C295.887 145.654 294.523 142.108 294.032 138.344C292.668 127.706 300.578 119.142 306.688 111.341C313.071 103.103 321.69 97.4299 332.655 96.9389Z" fill="#EB7159"/>
<path d="M348.421 69.2811C347.875 69.2811 347.439 68.8992 347.33 68.4083C347.002 66.9354 347.548 65.3533 348.694 64.3714C349.785 63.444 351.258 63.1167 352.676 63.4986C353.276 63.6622 353.603 64.2623 353.44 64.8624C353.276 65.4624 352.676 65.7898 352.076 65.6261C351.421 65.4625 350.657 65.6261 350.166 66.0625C349.621 66.5535 349.348 67.3172 349.512 68.0264C349.621 68.6265 349.239 69.172 348.639 69.3356C348.584 69.2811 348.53 69.2811 348.421 69.2811Z" fill="black"/>
<path d="M322.127 44.1872C322.127 44.1872 321.745 66.1716 350.166 59.9527L348.584 41.3505L322.127 44.1872Z" fill="black"/>
<path d="M324.091 73.9179C319.563 73.9179 315.908 69.6629 315.908 64.4259C315.908 59.1889 319.563 54.9338 324.091 54.9338C328.618 54.9338 332.273 59.1889 332.273 64.4259C332.273 69.6629 328.618 73.9179 324.091 73.9179ZM324.091 57.1159C320.763 57.1159 318.09 60.389 318.09 64.4259C318.09 68.4627 320.763 71.7359 324.091 71.7359C327.418 71.7359 330.091 68.4627 330.091 64.4259C330.091 60.389 327.418 57.1159 324.091 57.1159Z" fill="black"/>
<path d="M361.458 188.695H319.781V161.038H358.294C361.022 169.984 362.113 179.367 361.458 188.695Z" fill="black"/>
<path d="M256.337 166.493H234.843C230.588 166.493 227.097 163.056 227.097 158.801C227.097 158.092 227.206 157.328 227.424 156.673C228.352 153.509 231.243 151.327 234.571 151.327H256.61C259.774 151.327 262.61 153.346 263.647 156.346C265.011 160.383 262.828 164.747 258.792 166.111C258.028 166.384 257.155 166.493 256.337 166.493Z" fill="#F3EAD6"/>
<path d="M333.31 135.725L326.273 149.636L285.631 153.673C284.104 153.837 282.576 153.509 281.213 152.855L263.592 143.69C263.592 143.69 257.428 140.253 248.536 143.963L233.589 150.782C232.279 151.327 231.516 152.636 231.625 154.055V154.109C231.788 155.2 232.77 155.964 233.861 155.8C233.971 155.8 234.025 155.746 234.134 155.746L250.009 151.327L242.59 158.037C241.499 159.019 240.735 160.328 240.408 161.747C239.917 164.092 240.517 167.256 246.518 168.675C246.518 168.675 249.3 173.312 254.046 170.857C254.046 170.857 254.755 171.457 254.809 171.511C255.573 172.057 256.337 172.603 257.155 172.984C259.774 174.294 262.61 175.003 265.502 175.112C267.302 175.221 268.993 174.403 269.211 172.439L270.739 172.603C275.485 173.093 280.176 173.803 284.868 174.675L320.708 181.604C330.528 182.967 337.565 180.894 341.165 179.476C351.639 175.33 358.404 167.966 363.859 158.637L374.224 140.799L333.31 135.725Z" fill="white"/>
<path d="M327.036 183.131C324.854 183.131 322.672 182.967 320.49 182.64H320.435L284.54 175.657C279.903 174.785 275.212 174.075 270.52 173.585L269.92 173.53C269.265 175.221 267.52 176.203 265.338 176.094C262.283 175.985 259.282 175.221 256.555 173.857C255.682 173.421 254.809 172.875 254.045 172.275L253.827 172.112L253.773 172.057C249.954 173.639 247.008 171.348 245.754 169.548C238.935 167.747 238.716 163.711 239.207 161.419C239.589 159.783 240.462 158.255 241.771 157.11L245.754 153.509L234.352 156.728C232.716 157.164 231.025 156.237 230.588 154.6C230.534 154.491 230.534 154.328 230.479 154.219C230.261 152.309 231.297 150.509 233.043 149.745L248.045 142.926C257.319 139.053 263.81 142.544 264.083 142.708L281.649 151.818C282.849 152.418 284.158 152.691 285.467 152.527L325.509 148.545L332.655 134.471L375.915 139.817L364.677 159.074C358.403 169.82 351.039 176.585 341.438 180.404C336.91 182.258 332 183.131 327.036 183.131ZM320.817 180.513C327.963 181.495 334.619 180.84 340.674 178.44C349.893 174.785 356.767 168.511 362.822 158.037L372.369 141.617L333.91 136.926L326.927 150.727L285.686 154.819C283.94 154.982 282.194 154.655 280.667 153.837L263.101 144.672C262.828 144.508 257.21 141.508 248.972 144.999L233.97 151.764C233.098 152.146 232.607 152.964 232.607 153.891C232.661 154.382 233.098 154.709 233.588 154.655C233.643 154.655 233.643 154.655 233.698 154.655L253.991 148.982L243.135 158.801C242.208 159.619 241.553 160.71 241.28 161.91C240.68 164.638 242.48 166.547 246.626 167.529L247.063 167.638L247.281 168.02C247.499 168.402 249.681 171.73 253.336 169.766C254.045 169.384 254.482 169.82 255.191 170.42L255.3 170.53C256.009 171.021 256.719 171.512 257.482 171.893C259.937 173.094 262.61 173.803 265.392 173.912C266.101 173.966 267.793 173.857 267.956 172.221L268.065 171.13L270.684 171.402C275.43 171.893 280.23 172.603 284.922 173.53L320.817 180.513Z" fill="black"/>
<path d="M225.406 346.242H271.338C272.539 346.242 273.521 347.224 273.521 348.424V350.333C273.521 351.533 272.539 352.515 271.338 352.515H225.406C224.206 352.515 223.224 351.533 223.224 350.333V348.424C223.224 347.224 224.206 346.242 225.406 346.242Z" fill="black"/>
<path d="M217.987 335.058L239.098 331.294H269.92V342.696C269.92 344.878 268.175 346.623 265.993 346.623H225.351L217.987 335.058Z" fill="white"/>
<path d="M265.993 347.715H224.806L216.187 334.295L239.098 330.203H271.011V342.696C271.011 345.478 268.775 347.715 265.993 347.715ZM226.006 345.532H266.047C267.629 345.532 268.884 344.278 268.884 342.696V332.385H239.207L219.787 335.822L226.006 345.532Z" fill="black"/>
<path d="M191.802 309.801L179.146 300.527C170.908 294.526 169.108 283.016 175.109 274.778L230.37 199.006C239.153 186.95 256.064 184.277 268.12 193.06C280.176 201.842 282.849 218.754 274.066 230.81L219.678 305.382C213.186 314.329 200.694 316.293 191.802 309.801Z" fill="black"/>
<path d="M323.654 227.536H227.097V208.552C227.097 193.332 239.426 181.004 254.646 181.004H361.459V189.677C361.459 210.571 344.547 227.536 323.654 227.536Z" fill="black"/>
<path d="M261.247 333.967H245.59C235.389 333.967 227.152 325.73 227.152 315.529V225.191H281.213V314.056C281.213 325.075 272.266 333.967 261.247 333.967Z" fill="black"/>
<path d="M198.294 310.183C197.694 310.183 197.203 309.692 197.203 309.092C197.203 308.874 197.257 308.655 197.421 308.492L226.279 267.578C226.606 267.087 227.315 266.978 227.806 267.305C228.297 267.632 228.406 268.341 228.079 268.832L199.221 309.746C198.948 310.019 198.621 310.183 198.294 310.183Z" fill="white"/>
<path d="M264.083 334.84C263.483 334.84 262.992 334.349 262.992 333.749V222.954C262.992 214.389 269.92 207.461 278.485 207.461H320.926C330.2 207.461 337.728 199.933 337.728 190.659V181.058C337.728 180.458 338.219 179.967 338.819 179.967C339.42 179.967 339.911 180.458 339.911 181.058V190.659C339.911 201.133 331.4 209.643 320.926 209.643H278.485C271.12 209.643 265.174 215.59 265.174 222.954V333.804C265.174 334.404 264.683 334.84 264.083 334.84Z" fill="white"/>
<path d="M246.463 169.711C245.972 169.711 245.536 169.384 245.426 168.948C242.917 160.274 252.191 154.928 252.3 154.873C252.845 154.546 253.5 154.764 253.773 155.255C254.1 155.801 253.882 156.455 253.391 156.728C251.973 157.601 250.718 158.692 249.627 159.947C247.445 162.565 246.736 165.402 247.554 168.293C247.718 168.893 247.39 169.493 246.79 169.657C246.681 169.657 246.572 169.711 246.463 169.711Z" fill="black"/>
<path d="M253.936 171.893C253.555 171.893 253.227 171.73 253.064 171.402C251.864 169.766 251.427 167.747 251.918 165.784C253.009 161.201 258.573 158.092 258.792 157.928C259.283 157.601 259.992 157.764 260.319 158.255C260.646 158.746 260.483 159.456 259.992 159.783C259.937 159.783 259.937 159.837 259.883 159.837C259.774 159.892 254.918 162.674 254.046 166.275C253.718 167.638 254.046 169.057 254.864 170.202C255.191 170.693 255.082 171.402 254.591 171.73C254.373 171.784 254.155 171.893 253.936 171.893Z" fill="black"/>
<path d="M269.156 173.53C268.611 173.53 268.12 173.094 268.065 172.548C267.847 170.802 264.301 168.729 262.61 168.02L261.083 167.366L266.32 162.292C266.756 161.91 267.465 161.91 267.847 162.401C268.229 162.838 268.229 163.438 267.847 163.874L264.901 166.711C266.811 167.747 269.92 169.766 270.193 172.275C270.248 172.875 269.866 173.421 269.266 173.475L269.156 173.53Z" fill="black"/>
<path d="M231.352 352.57H205.385C203.367 352.57 201.785 350.933 201.785 348.969C201.785 340.786 208.386 334.186 216.569 334.186C224.751 334.186 231.352 340.786 231.352 348.969V352.57Z" fill="black"/>
<path d="M331.182 63.935C330.582 63.9895 330.091 63.4986 330.036 62.8985C329.982 62.2984 330.473 61.8075 331.073 61.7529L348.257 59.8436C348.857 59.789 349.402 60.2255 349.457 60.8255C349.511 61.4256 349.075 61.9711 348.475 62.0257L331.291 63.935H331.182Z" fill="black"/>
<path d="M330.31 87.1195L331.073 93.6658L342.475 86.1376C342.693 86.0285 342.747 85.7557 342.584 85.5375C342.475 85.3739 342.311 85.3193 342.147 85.3739L330.31 87.1195Z" fill="black"/>
<path d="M333.31 136.816C333.146 136.816 333.037 136.762 332.873 136.707C332.328 136.435 332.11 135.834 332.328 135.289L336.801 124.979C337.019 124.433 337.674 124.16 338.219 124.379C338.765 124.597 339.038 125.251 338.819 125.797C338.819 125.797 338.819 125.797 338.819 125.851L334.346 136.162C334.128 136.544 333.746 136.816 333.31 136.816Z" fill="black"/>
<path d="M227.424 294.145C226.824 294.145 226.333 293.654 226.333 293.053V204.243C226.333 203.643 226.824 203.152 227.424 203.152C228.024 203.152 228.515 203.643 228.515 204.243V292.999C228.515 293.654 228.024 294.145 227.424 294.145Z" fill="white"/>
<path d="M112.92 41.6778C120.15 41.6778 126.012 35.8161 126.012 28.5853C126.012 21.3545 120.15 15.4928 112.92 15.4928C105.689 15.4928 99.8271 21.3545 99.8271 28.5853C99.8271 35.8161 105.689 41.6778 112.92 41.6778Z" fill="#FFB433"/>
<path d="M113.686 66.5389C120.269 54.0366 118.237 40.0212 109.147 35.2346C100.056 30.4481 87.3506 36.703 80.7674 49.2054C74.1842 61.7077 76.2165 75.7231 85.3067 80.5097C94.3969 85.2962 107.103 79.0413 113.686 66.5389Z" fill="#FFB433"/>
<path d="M110.735 112.836C113.409 93.9242 103.123 76.8319 87.761 74.6597C72.3985 72.4874 57.777 86.0578 55.1028 104.97C52.4286 123.882 62.7145 140.975 78.0769 143.147C93.4393 145.319 108.061 131.749 110.735 112.836Z" fill="#FFB433"/>
<path d="M13.5803 83.5736C20.2687 83.5736 25.6908 78.1516 25.6908 71.4631C25.6908 64.7746 20.2687 59.3525 13.5803 59.3525C6.8918 59.3525 1.46973 64.7746 1.46973 71.4631C1.46973 78.1516 6.8918 83.5736 13.5803 83.5736Z" fill="#FFB433"/>
<path d="M26.5693 120.692C35.6927 118.555 40.839 107.216 38.0639 95.3641C35.2887 83.5125 25.6429 75.6366 16.5195 77.7729C7.39602 79.9093 2.24972 91.2488 5.02489 103.1C7.80007 114.952 17.4458 122.828 26.5693 120.692Z" fill="#FFB433"/>
<path d="M37.9732 174.077C51.2155 171.797 59.6751 156.734 56.8682 140.434C54.0613 124.133 41.0508 112.767 27.8085 115.048C14.5661 117.328 6.1065 132.391 8.91341 148.691C11.7203 164.992 24.7308 176.358 37.9732 174.077Z" fill="#FFB433"/>
<path d="M53.6761 227.973C53.1306 227.973 52.6396 227.591 52.5851 226.991C46.1479 175.876 28.4185 131.47 28.2003 131.034C27.9821 130.488 28.2003 129.834 28.7458 129.616C29.2914 129.397 29.946 129.616 30.1642 130.161V130.216C30.3278 130.652 48.2209 175.276 54.7126 226.718C54.7671 227.318 54.3853 227.864 53.7852 227.918L53.6761 227.973Z" fill="black"/>
<path d="M66.8232 228.518C66.2231 228.518 65.7322 228.027 65.7322 227.427C65.6231 176.148 72.8239 135.016 78.8792 109.54C85.48 81.8826 92.2445 66.1716 92.299 66.008C92.5718 65.4625 93.1718 65.1897 93.7174 65.4625C94.2629 65.6807 94.4811 66.3353 94.2629 66.8808C94.2083 67.0445 87.4984 82.6464 80.9522 110.141C74.8969 135.507 67.6961 176.421 67.8597 227.427C67.9688 228.027 67.4778 228.518 66.8232 228.518Z" fill="black"/>
<path d="M45.6025 227.427H73.0967C81.3886 227.427 88.1531 234.137 88.1531 242.484V346.46C88.1531 354.752 81.4432 361.516 73.0967 361.516H45.6025C37.3106 361.516 30.5461 354.806 30.5461 346.46V242.484C30.5461 234.192 37.3106 227.427 45.6025 227.427Z" fill="#2CADBB"/>
<path d="M33.3829 354.37C32.9465 354.37 32.5647 354.097 32.401 353.715C32.1828 353.17 32.401 352.515 32.9465 352.297C50.185 344.823 69.7146 344.551 87.1167 351.588C87.6622 351.806 87.9349 352.461 87.6622 353.006C87.444 353.552 86.8439 353.77 86.2984 353.606C69.3873 346.787 50.5123 347.06 33.7648 354.261C33.6557 354.315 33.492 354.315 33.3829 354.37Z" fill="black"/>
<path d="M80.1884 249.685H39.3835C38.7834 249.685 38.2925 249.194 38.2925 248.594C38.2925 247.993 38.7834 247.503 39.3835 247.503H80.1884C80.7885 247.503 81.2795 247.993 81.2795 248.594C81.2795 249.194 80.7885 249.685 80.1884 249.685Z" fill="black"/>
<path d="M69.7143 348.642C69.1143 348.642 68.6233 348.151 68.6233 347.551V248.921C68.6233 248.321 69.1143 247.83 69.7143 247.83C70.3144 247.83 70.8054 248.321 70.8054 248.921V347.551C70.8054 348.151 70.3144 348.642 69.7143 348.642Z" fill="black"/>
<path d="M49.803 348.642C49.2029 348.642 48.7119 348.151 48.7119 347.551V248.921C48.7119 248.321 49.2029 247.83 49.803 247.83C50.403 247.83 50.894 248.321 50.894 248.921V347.551C50.894 348.151 50.403 348.642 49.803 348.642Z" fill="black"/>
</svg>
