<svg width="74" height="50" viewBox="0 0 74 50" fill="none" xmlns="http://www.w3.org/2000/svg">
<path d="M3.52269e-06 13.4529C3.84938e-06 9.71598 1.40741 6.50223 4.22223 3.81164C6.8889 1.27054 10.2222 -5.35985e-06 14.2222 -5.01016e-06C19.7037 -4.53095e-06 24.2963 1.94319 28 5.82958C31.5556 9.71599 33.3333 14.7235 33.3333 20.852C33.3333 32.0628 29.037 40.0598 20.4444 44.843C14.2222 48.281 9.18519 50 5.33334 50C3.70371 50 2.88889 49.4021 2.88889 48.2063C2.88889 47.1599 3.77778 46.4126 5.55556 45.9641C17.8519 42.6756 24 36.4723 24 27.3543C24 23.3184 22.963 19.8804 20.8889 17.0403C20.5926 22.1226 17.4074 24.6637 11.3333 24.6637C8.07408 24.6637 5.40741 23.5426 3.33334 21.3004C1.11112 19.2078 3.24827e-06 16.5919 3.52269e-06 13.4529ZM40.8889 13.4529C40.8889 9.71599 42.2963 6.50223 45.1111 3.81165C47.7778 1.27055 51.037 -1.79171e-06 54.8889 -1.45497e-06C60.5185 -9.6281e-07 65.1111 1.9432 68.6667 5.82959C72.2222 9.86546 74 14.9477 74 21.0762C74 32.1375 69.7037 40.0598 61.1111 44.843C54.8889 48.281 49.9259 50 46.2222 50C44.5926 50 43.7778 49.4021 43.7778 48.2063C43.7778 47.1599 44.6667 46.4126 46.4444 45.9641C58.5926 42.6756 64.6667 36.3976 64.6667 27.13C64.6667 23.2436 63.6296 19.8804 61.5556 17.0404C61.2593 22.1226 58.1482 24.6637 52.2222 24.6637C48.963 24.6637 46.2963 23.5426 44.2222 21.3004C42 19.2078 40.8889 16.5919 40.8889 13.4529Z" fill="#EB7159"/>
</svg>
